<?xml version="1.0" standalone="no"?><!DOCTYPE svg PUBLIC "-//W3C//DTD SVG 1.1//EN" "http://www.w3.org/Graphics/SVG/1.1/DTD/svg11.dtd"><svg t="1660010397984" class="icon" viewBox="0 0 1024 1024" version="1.1" xmlns="http://www.w3.org/2000/svg" p-id="5538" xmlns:xlink="http://www.w3.org/1999/xlink" width="200" height="200"><defs><style type="text/css">@font-face { font-family: feedback-iconfont; src: url("//at.alicdn.com/t/font_1031158_u69w8yhxdu.woff2?t=1630033759944") format("woff2"), url("//at.alicdn.com/t/font_1031158_u69w8yhxdu.woff?t=1630033759944") format("woff"), url("//at.alicdn.com/t/font_1031158_u69w8yhxdu.ttf?t=1630033759944") format("truetype"); }
</style></defs><path d="M825.31 348.36H444.15c-30.31 0-54.88-24.57-54.88-54.88v-135.7c0-30.31 24.57-54.88 54.88-54.88h381.16c30.31 0 54.88 24.57 54.88 54.88v135.7c-0.01 30.32-24.58 54.88-54.88 54.88z" fill="#0C2E97" p-id="5539"></path><path d="M891.72 962H132.28C93.47 962 62 930.53 62 891.72V132.28C62 93.47 93.47 62 132.28 62h210.65c30.24 0 59.84 8.76 85.22 25.22l115.08 74.64a142.035 142.035 0 0 0 77.3 22.87h271.19c38.81 0 70.28 31.47 70.28 70.28v636.71c0 38.81-31.47 70.28-70.28 70.28z" fill="#1AADF9" p-id="5540"></path><path d="M818.82 430.18H205.18c-11.3 0-20.45-9.16-20.45-20.45 0-11.3 9.16-20.45 20.45-20.45h613.64c11.3 0 20.45 9.16 20.45 20.45s-9.16 20.45-20.45 20.45z" fill="#FFFFFF" p-id="5541"></path></svg>